De tijd is weer aangebroken, de dagen worden korter en weldra zal de winter weer voor de deur staan. Sinterklaas is ook weer in het land aangekomen wat voor de allerkleinsten weer een mooie maar spannende tijd zal worden. Voor mij reden genoeg om weer eens even terug te gaan in de tijd. Eén van de allergrootste cabaretiërs, Toon  Hermans, die al weer geruime tijd van ons heen is gegaan heeft in één van zijn one-man shows de goedheiligman eens flink onder de loep genomen en op hilarische wijze onderuit gehaald. Onder de titel 'Snieklaas' belichtte hij op zijn eigen ludieke wijze zijn belevenis van het sinterklaasfeest. 38 jaar later blijkt de scene onder de wat ouderen onder ons nog steeds niet uit het geheugen te zijn gewist. Ik laat u daarom nog keer genieten van deze grote komiek. Voor doven en slechthorenden heb dit onvergetlijk optreden ondertiteld. Veel plezier ermee.

VIDEO INFO


Complete name                    : C:\Documents and Settings\R.Sweres\Bureaublad\Toon Hermans - Snieklaas (Komedie, Satire 1974 XviD)+Ondertiteling AAN-UIT.avi
Format                           : AVI
Format/Info                      : Audio Video Interleave
Format profile                   : OpenDML
Format settings                  : rec
File size                        : 136 MiB
Duration                         : 17mn 10s
Overall bit rate                 : 1 109 Kbps
Movie name                       : Toon Hermans - Snieklaas (Komedie, Satire XviD)
Writing application              : AVI-Mux GUI 1.17.7, Aug  8 2006  20:59:17

Video
ID                               : 0
Format                           : MPEG-4 Visual
Format profile                   : Advanced Simple@L5
Format settings, BVOP            : Yes
Format settings, QPel            : No
Format settings, GMC             : No warppoints
Format settings, Matrix          : Default (H.263)
Codec ID                         : XVID
Codec ID/Hint                    : XviD
Duration                         : 17mn 10s
Bit rate                         : 972 Kbps
Width                            : 640 pixels
Height                           : 380 pixels
Display aspect ratio             : 1.684
Frame rate                       : 20.000 fps
Color space                      : YUV
Chroma subsampling               : 4:2:0
Bit depth                        : 8 bits
Scan type                        : Progressive
Compression mode                 : Lossy
Bits/(Pixel*Frame)               : 0.200
Stream size                      : 119 MiB (88%)
Writing library                  : XviD 1.2.1 (UTC 2008-12-04)

Audio
ID                               : 1
Format                           : MPEG Audio
Format version                   : Version 1
Format profile                   : Layer 3
Mode                             : Joint stereo
Mode extension                   : MS Stereo
Codec ID                         : 55
Codec ID/Hint                    : MP3
Duration                         : 17mn 10s
Bit rate mode                    : Constant
Bit rate                         : 128 Kbps
Channel(s)                       : 2 channels
Sampling rate                    : 44.1 KHz
Compression mode                 : Lossy
Stream size                      : 15.7 MiB (12%)
Alignment                        : Aligned on interleaves
Interleave, duration             : 26 ms (0.52 video frame)
Interleave, preload duration     : 182 ms

Text
ID                               : 2
Stream size                      : 19.6 KiB (0%)

Ondertiteling voor Doven en Slechthorenden (Kan worden uitgezet).